<?xml version="1.0" encoding="UTF-8"?>
<svg width="177px" height="49px" viewBox="0 0 177 49" version="1.1" xmlns="http://www.w3.org/2000/svg" xmlns:xlink="http://www.w3.org/1999/xlink">
    <title>Group 3</title>
    <g id="Page-1" stroke="none" stroke-width="1" fill="none" fill-rule="evenodd">
        <g id="Group-3" transform="translate(1.000000, 1.000000)">
            <polyline id="Path-2" stroke="#FFFFFF" stroke-width="1.5" stroke-linejoin="round" points="23.2579071 0 50.2068179 46.4556391 -2.78703826e-15 46.4556391 11.2492936 29.2808433"></polyline>
            <line x1="16.0661817" y1="11.1089572" x2="34.1406361" y2="41.4061131" id="Path-3" stroke="#FFFFFF" stroke-width="1.5"></line>
            <g id="AHANSA" transform="translate(64.340037, 27.609820)" fill="#FFFFFF" fill-rule="nonzero">
                <path d="M15.162459,19.1377035 L13.2043931,14.3406538 L4.4935102,14.3406538 L2.51034089,19.1377035 L0,19.1377035 L7.85736699,0.252476299 L9.81543289,0.252476299 L17.6727999,19.1377035 L15.162459,19.1377035 Z M12.3508772,12.3208434 L8.86150335,3.81239212 L5.3470261,12.3208434 L12.3508772,12.3208434 Z" id="Shape"></path>
                <polygon id="Path" points="33.0611896 19.1377035 33.0611896 10.3767759 23.2708601 10.3767759 23.2708601 19.1377035 20.9613465 19.1377035 20.9613465 0.252476299 23.2708601 0.252476299 23.2708601 8.30647025 33.0611896 8.30647025 33.0611896 0.252476299 35.3455998 0.252476299 35.3455998 19.1377035"></polygon>
                <path d="M53.7715019,19.1377035 L51.813436,14.3406538 L43.1025531,14.3406538 L41.1193838,19.1377035 L38.6090429,19.1377035 L46.4664099,0.252476299 L48.4244758,0.252476299 L56.2818428,19.1377035 L53.7715019,19.1377035 Z M50.9599201,12.3208434 L47.4705463,3.81239212 L43.956069,12.3208434 L50.9599201,12.3208434 Z" id="Shape"></path>
                <polygon id="Path" points="71.9212666 19.1377035 61.879903 4.54457339 61.879903 19.1377035 59.5703894 19.1377035 59.5703894 0.252476299 61.5033519 0.252476299 71.5949223 14.870854 71.5949223 0.252476299 73.8793325 0.252476299 73.8793325 19.1377035"></polygon>
                <path d="M84.9499358,0 C86.8243237,0 88.3556316,0.467081154 89.5438596,1.40124346 C90.7320877,2.33540577 91.3596729,3.61882696 91.4266153,5.25150703 L89.0919983,5.40299281 C89.0250559,4.34259235 88.6234013,3.5136285 87.8870347,2.91610126 C87.150668,2.31857402 86.1883707,2.01981039 85.0001426,2.01981039 C83.6947654,2.01981039 82.690629,2.32278195 81.9877336,2.92872507 C81.2848381,3.53466819 80.9333904,4.31734472 80.9333904,5.27675466 C80.9333904,6.30349161 81.2806542,7.027257 81.9751819,7.44805083 C82.6697095,7.86884466 83.8453858,8.26439086 85.5022108,8.63468944 C86.6234964,8.90399749 87.5397708,9.16488966 88.2510341,9.41736596 C88.9622973,9.66984226 89.6233538,9.99385351 90.2342034,10.3893997 C90.845053,10.7849459 91.2885466,11.2730668 91.5646841,11.8537623 C91.8408216,12.4344577 91.9788903,13.1287676 91.9788903,13.9366917 C91.9788903,15.7376893 91.355489,17.0968534 90.1086864,18.014184 C88.8618837,18.9315145 87.2594494,19.3901798 85.3013835,19.3901798 C83.2763752,19.3901798 81.6028146,18.9020589 80.2807018,17.9258173 C78.9585889,16.9495756 78.2556934,15.6030353 78.1720154,13.8861965 L80.481529,13.7599583 C80.5652071,14.8540223 81.0589074,15.7292734 81.9626302,16.3857118 C82.8663529,17.0421502 83.9792707,17.3703694 85.3013835,17.3703694 C86.6234964,17.3703694 87.6778396,17.1010613 88.4644131,16.5624452 C89.2509865,16.0238291 89.6442733,15.2074891 89.6442733,14.1134251 C89.6442733,13.6757995 89.5647792,13.2886692 89.4057909,12.9520342 C89.2468026,12.6153991 89.0543432,12.3418831 88.8284125,12.1314862 C88.6024818,11.9210893 88.2426663,11.7149003 87.7489659,11.5129192 C87.2552655,11.3109382 86.811772,11.1552445 86.4184852,11.0458381 C86.0251985,10.9364317 85.4436362,10.7891539 84.6737983,10.6040046 C83.669662,10.36836 82.8663529,10.1453393 82.2638711,9.93494238 C81.6613892,9.72454546 81.0463557,9.42578184 80.4187705,9.03865152 C79.7911853,8.65152119 79.3309561,8.15498447 79.038083,7.54904135 C78.7452099,6.94309823 78.5987734,6.21091696 78.5987734,5.35249755 C78.5987734,3.820808 79.1468645,2.54580268 80.2430466,1.52748161 C81.3392288,0.509160537 82.9081919,0 84.9499358,0 Z" id="Path"></path>
                <path d="M109.149622,19.1377035 L107.191556,14.3406538 L98.4806732,14.3406538 L96.4975039,19.1377035 L93.987163,19.1377035 L101.84453,0.252476299 L103.802596,0.252476299 L111.659963,19.1377035 L109.149622,19.1377035 Z M106.33804,12.3208434 L102.848666,3.81239212 L99.3341891,12.3208434 L106.33804,12.3208434 Z" id="Shape"></path>
            </g>
        </g>
    </g>
</svg>